<svg width="10" height="10" viewBox="0 0 10 10" fill="none" xmlns="http://www.w3.org/2000/svg">
<path fill-rule="evenodd" clip-rule="evenodd" d="M2.8292 3.35297C2.8292 1.56967 4.27485 0.124023 6.05815 0.124023C7.84144 0.124023 9.2871 1.56967 9.2871 3.35297C9.2871 5.13627 7.84144 6.58192 6.05815 6.58192H5.13559V7.50448H4.21303V8.42704H3.29047V9.3496H0.0615234V6.85213L2.89747 4.01619C2.85224 3.79971 2.8292 3.57776 2.8292 3.35297ZM4.21303 6.58212V5.65956H6.05815C7.33193 5.65956 8.36454 4.62696 8.36454 3.35317C8.36454 2.07938 7.33193 1.04678 6.05815 1.04678C4.78436 1.04678 3.75175 2.07938 3.75175 3.35317C3.75175 3.58318 3.78528 3.80817 3.8505 4.02335L3.93068 4.28787L0.98408 7.23447V8.42723H2.36792V7.50468H3.29047V6.58212H4.21303ZM5.13559 3.35317C5.13559 3.86268 5.54863 4.27573 6.05815 4.27573C6.56766 4.27573 6.9807 3.86268 6.9807 3.35317C6.9807 2.84366 6.56766 2.43061 6.05815 2.43061C5.54863 2.43061 5.13559 2.84366 5.13559 3.35317Z" fill="#C6C6C6"/>
</svg>
