<svg width="30" height="30" viewBox="0 0 30 30" fill="none" xmlns="http://www.w3.org/2000/svg">
<path fill-rule="evenodd" clip-rule="evenodd" d="M17.0674 8.75029C17.0674 7.42744 15.9916 6.35164 14.6687 6.35164C13.3459 6.35164 12.2701 7.42744 12.2701 8.75029C12.2701 10.0731 13.3459 11.1489 14.6687 11.1489C15.9916 11.1489 17.0674 10.0731 17.0674 8.75029ZM19.466 8.75042C19.466 11.3961 17.3144 13.5477 14.6687 13.5477C12.023 13.5477 9.87141 11.3961 9.87141 8.75042C9.87141 6.10471 12.023 3.95312 14.6687 3.95312C17.3144 3.95312 19.466 6.10471 19.466 8.75042ZM6.27344 24.3416C6.27344 19.7122 10.0405 15.9464 14.6687 15.9464C19.2969 15.9464 23.064 19.7122 23.064 24.3416C23.064 25.0037 22.5279 25.541 21.8647 25.541C21.2014 25.541 20.6653 25.0037 20.6653 24.3416C20.6653 21.0351 17.9752 18.345 14.6687 18.345C11.3622 18.345 8.67209 21.0351 8.67209 24.3416C8.67209 25.0037 8.13599 25.541 7.47276 25.541C6.80954 25.541 6.27344 25.0037 6.27344 24.3416Z" fill="black"/>
<mask id="mask0" mask-type="alpha" maskUnits="userSpaceOnUse" x="6" y="3" width="18" height="23">
<path fill-rule="evenodd" clip-rule="evenodd" d="M17.0674 8.75029C17.0674 7.42744 15.9916 6.35164 14.6687 6.35164C13.3459 6.35164 12.2701 7.42744 12.2701 8.75029C12.2701 10.0731 13.3459 11.1489 14.6687 11.1489C15.9916 11.1489 17.0674 10.0731 17.0674 8.75029ZM19.466 8.75042C19.466 11.3961 17.3144 13.5477 14.6687 13.5477C12.023 13.5477 9.87141 11.3961 9.87141 8.75042C9.87141 6.10471 12.023 3.95312 14.6687 3.95312C17.3144 3.95312 19.466 6.10471 19.466 8.75042ZM6.27344 24.3416C6.27344 19.7122 10.0405 15.9464 14.6687 15.9464C19.2969 15.9464 23.064 19.7122 23.064 24.3416C23.064 25.0037 22.5279 25.541 21.8647 25.541C21.2014 25.541 20.6653 25.0037 20.6653 24.3416C20.6653 21.0351 17.9752 18.345 14.6687 18.345C11.3622 18.345 8.67209 21.0351 8.67209 24.3416C8.67209 25.0037 8.13599 25.541 7.47276 25.541C6.80954 25.541 6.27344 25.0037 6.27344 24.3416Z" fill="white"/>
</mask>
<g mask="url(#mask0)">
<rect x="0.276367" y="0.355469" width="28.7838" height="28.7838" fill="#C6C6C6"/>
</g>
</svg>
